mtllib materials.mtl
v -0.04827611 8.785725E-05 0.05059437
v -0.04887517 0.02018631 0.04565351
v 0.00917387 0.01893377 0.03351994
v 0.009772941 -0.001164675 0.03846081
v -0.05150174 0.03511322 0.03154644
v 0.006547287 0.03386056 0.01941288
v -0.05545208 0.04086876 0.01205321
v 0.002596959 0.03961623 -8.036196E-05
v -0.05966766 0.03591096 -0.007603034
v -0.001618624 0.03465831 -0.0197366
v -0.06301893 0.02156818 -0.0221554
v -0.00496991 0.02031553 -0.03428896
v -0.06460793 0.001683474 -0.0277046
v -0.006558895 0.0004309416 -0.03983815
v -0.06400888 -0.01841497 -0.0227637
v -0.005959839 -0.01966751 -0.03489724
v -0.06138231 -0.03334188 -0.008656666
v -0.003333256 -0.03459442 -0.0207902
v -0.05743198 -0.03909743 0.01083657
v 0.000617072 -0.04035008 -0.001296982
v -0.05321638 -0.03413963 0.03049283
v 0.00483264 -0.03539228 0.01835926
v -0.04986511 -0.01979673 0.04504518
v 0.008183941 -0.02104938 0.03291163
v -0.2685143 -0.02949369 0.07549508
v -0.2651631 -0.0151509 0.09004746
v -0.2727299 -0.03445148 0.05583884
v -0.2766803 -0.02869594 0.03634559
v -0.2793068 -0.01376903 0.02223857
v -0.2799059 0.006329417 0.01729767
v -0.2783169 0.026214 0.02284686
v -0.2749656 0.04055691 0.03739925
v -0.27075 0.0455147 0.05705549
v -0.2667997 0.03975904 0.07654871
v -0.2641731 0.02483225 0.09065576
v -0.2635741 0.004733801 0.09559666
v -0.05353899 -0.03063715 0.02858815
v -0.05052283 -0.01772857 0.0416853
v -0.05733302 -0.03509915 0.0108975
v -0.06088829 -0.02991915 -0.006646395
v -0.06325221 -0.01648498 -0.01934274
v -0.06379135 0.001603723 -0.02378954
v -0.06236124 0.0194999 -0.01879527
v -0.05934508 0.03240848 -0.00569813
v -0.05555107 0.03687048 0.0119925
v -0.05199577 0.03169048 0.02953641
v -0.04963186 0.01825631 0.04223277
v -0.04909274 0.0001676083 0.04667954
v 0.06877333 -0.003027201 0.01803072
v 0.06507257 0.01710796 0.02112876
v 0.03166538 0.0174371 -0.02091743
v 0.03536616 -0.002697945 -0.02401547
v 0.05397581 0.03213322 0.03006315
v 0.02056862 0.03246236 -0.01198304
v 0.03845647 0.0380224 0.04243992
v 0.005049288 0.03835166 0.0003937334
v 0.02267291 0.03319788 0.05494274
v -0.01073425 0.03352702 0.01289654
v 0.01085432 0.01895189 0.06422149
v -0.02255286 0.01928115 0.02217528
v 0.006167501 -0.0008980036 0.06778993
v -0.02723967 -0.0005687475 0.02574372
v 0.009868279 -0.02103317 0.06469186
v -0.0235389 -0.02070403 0.02264565
v 0.02096502 -0.03605843 0.05575748
v -0.01244213 -0.03572905 0.01371126
v 0.03648437 -0.0419476 0.04338069
v 0.003077224 -0.04161847 0.001334473
v 0.05226794 -0.03712296 0.03087787
v 0.01886077 -0.03679383 -0.01116832
v 0.06408653 -0.0228771 0.02159914
v 0.03067936 -0.02254784 -0.02044706
v 0.1891236 -0.03847158 0.2031239
v 0.2009422 -0.02422571 0.1938452
v 0.1733401 -0.04329622 0.2156268
v 0.1578207 -0.03740704 0.2280035
v 0.146724 -0.02238178 0.2369379
v 0.1430232 -0.002246618 0.240036
v 0.14771 0.01760328 0.2364676
v 0.1595286 0.03184927 0.2271888
v 0.1753121 0.0366739 0.214686
v 0.1908315 0.03078461 0.2023092
v 0.2019283 0.01575935 0.1933748
v 0.205629 -0.004375815 0.1902768
v 0.05078831 -0.03360701 0.0320811
v 0.06142505 -0.02078569 0.02373023
v 0.03658308 -0.0379492 0.04333366
v 0.02261567 -0.0326488 0.05447273
v 0.0126286 -0.01912606 0.06251366
v 0.009297892 -0.001004457 0.06530191
v 0.01351602 0.01686049 0.06209032
v 0.02415276 0.0296818 0.05373944
v 0.03835797 0.034024 0.04248692
v 0.05232538 0.0287236 0.03134783
v 0.06231247 0.01520097 0.02330688
v 0.06564317 -0.002920747 0.02051866
v -0.01745184 0.002022624 -0.06731428
v -0.01148713 0.02171016 -0.06496061
v -0.02673875 0.02053618 -0.01648937
v -0.03270346 0.0008485317 -0.01884304
v 0.003093079 0.03556299 -0.06003737
v -0.01215856 0.0343889 -0.01156615
v 0.02238201 0.03986895 -0.05386375
v 0.007130384 0.03869498 -0.005392537
v 0.04121124 0.03347456 -0.04809396
v 0.0259596 0.03230059 0.0003772676
v 0.05453546 0.01809299 -0.04427402
v 0.03928382 0.01691902 0.004197225
v 0.05878448 -0.002154231 -0.04342745
v 0.04353283 -0.003328204 0.00504379
v 0.05281976 -0.02184176 -0.04578112
v 0.03756812 -0.02301574 0.002690122
v 0.03823957 -0.03569448 -0.05070436
v 0.02298792 -0.03686845 -0.002233103
v 0.01895064 -0.04000056 -0.05687797
v 0.00369899 -0.04117453 -0.008406714
v 0.0001213998 -0.03360617 -0.06264777
v -0.01513022 -0.03478003 -0.01417653
v -0.01320283 -0.0182246 -0.06646772
v -0.02845447 -0.01939845 -0.01799648
v 0.06613571 -0.02852452 -0.2724484
v 0.05281147 -0.01314294 -0.2762684
v 0.08496495 -0.0349189 -0.2666786
v 0.1042539 -0.03061295 -0.260505
v 0.1188341 -0.01676011 -0.2555817
v 0.1247988 0.002927423 -0.2532281
v 0.1205498 0.02317452 -0.2540746
v 0.1072255 0.0385561 -0.2578946
v 0.08839631 0.04495049 -0.2636644
v 0.06910738 0.04064453 -0.269838
v 0.05452718 0.02679181 -0.2747612
v 0.04856247 0.007104158 -0.2771149
v 0.002175808 -0.0302521 -0.06192017
v -0.009816006 -0.01640868 -0.06535813
v 0.01912214 -0.03600705 -0.05672735
v 0.03648216 -0.03213167 -0.05117108
v 0.04960433 -0.01966417 -0.04674016
v 0.05497257 -0.001945376 -0.04462186
v 0.05114845 0.01627707 -0.04538374
v 0.03915664 0.03012049 -0.0488217
v 0.02221034 0.03587556 -0.05401453
v 0.004850298 0.03200006 -0.05957079
v -0.008271888 0.01953256 -0.06400171
v -0.01364011 0.001813769 -0.06612003
vn 0.2035968 0.2394442 0.9493234
vn 0.1618537 0.6927058 0.7028245
vn 0.07674201 0.9603562 0.2680052
vn -0.02893274 0.9706805 -0.2386256
vn -0.1268549 0.7209118 -0.6813179
vn -0.1907864 0.2779757 -0.9414511
vn -0.2035963 -0.2394451 -0.9493232
vn -0.1618533 -0.6927037 -0.7028264
vn -0.07674229 -0.9603561 -0.2680051
vn 0.028932 -0.9706805 0.2386258
vn 0.1268554 -0.7209107 0.6813189
vn 0.1907866 -0.2779752 0.9414511
vn 0.1268548 -0.7209113 0.6813185
vn 0.9786272 -0.02111772 -0.2045553
vn 0.02893164 -0.970681 0.2386239
vn -0.07674232 -0.9603567 -0.268003
vn -0.1618547 -0.6927041 -0.7028258
vn -0.2035975 -0.2394451 -0.949323
vn -0.1907866 0.2779758 -0.941451
vn -0.1268549 0.7209111 -0.6813186
vn -0.02893168 0.970681 -0.2386241
vn 0.07674232 0.9603568 0.268003
vn 0.1618546 0.6927046 0.7028254
vn 0.2035975 0.2394442 0.9493232
vn 0.1907867 -0.2779752 0.9414512
vn -0.1440191 0.7211713 -0.6776212
vn -0.04611146 0.9709019 -0.2349963
vn 0.05954643 0.9605792 0.2715548
vn 0.1446451 0.6929684 0.7063091
vn 0.1863814 0.2397788 0.9527687
vn 0.1735725 -0.2775621 0.9448978
vn 0.1096506 -0.7204297 0.684805
vn 0.01174314 -0.9701602 0.2421803
vn -0.09391476 -0.9598375 -0.2643709
vn -0.1790135 -0.6922272 -0.6991249
vn -0.2207499 -0.2390363 -0.9455851
vn -0.2079411 0.2783028 -0.9377143
vn -0.9786273 0.02111833 0.2045548
vn 0.7622874 0.2330146 -0.6038395
vn 0.5707933 0.6880229 -0.4481289
vn 0.2263551 0.9586772 -0.1723413
vn -0.1787319 0.9724545 0.1496231
vn -0.5359322 0.7256623 0.4314984
vn -0.749527 0.2844316 0.5977524
vn -0.7622875 -0.2330143 0.6038395
vn -0.5707929 -0.6880242 0.4481274
vn -0.226356 -0.9586772 0.17234
vn 0.178732 -0.9724545 -0.1496231
vn 0.535932 -0.7256624 -0.4314987
vn 0.7495273 -0.2844307 -0.5977525
vn 0.5359318 -0.7256625 -0.4314987
vn -0.6220708 0.006129893 -0.782937
vn 0.1787317 -0.9724547 -0.1496228
vn -0.226354 -0.9586776 0.1723402
vn -0.570794 -0.6880221 0.4481292
vn -0.762287 -0.2330148 0.6038399
vn -0.7495267 0.2844315 0.5977529
vn -0.5359318 0.7256624 0.4314988
vn -0.1787318 0.9724546 0.1496229
vn 0.2263539 0.9586776 -0.1723402
vn 0.5707936 0.6880226 -0.448129
vn 0.7622871 0.233014 -0.6038401
vn 0.7495268 -0.2844308 -0.597753
vn -0.5249258 0.7254434 0.4451797
vn -0.1677817 0.9721968 0.1633482
vn 0.2372434 0.9584218 -0.1585663
vn 0.5816292 0.6878088 -0.4343117
vn 0.7730931 0.2328711 -0.5899984
vn 0.7603347 -0.2844952 -0.5839123
vn 0.5467723 -0.7256586 -0.4176836
vn 0.1896285 -0.972412 -0.1358524
vn -0.2153968 -0.9586371 0.1860622
vn -0.5597823 -0.6880245 0.4618074
vn -0.7512467 -0.2330855 0.6174946
vn -0.7384884 0.284279 0.6114085
vn 0.6220706 -0.006129412 0.7829372
vn -0.9093814 0.3088275 -0.2786595
vn -0.6435106 0.7428713 -0.1844893
vn -0.2052104 0.9778636 -0.0408849
vn 0.2880707 0.9508386 0.1136721
vn 0.7041705 0.6690349 0.2377736
vn 0.931584 0.2079666 0.2981631
vn 0.9093811 -0.308828 0.2786598
vn 0.6435106 -0.7428712 0.18449
vn 0.2052102 -0.9778636 0.04088579
vn -0.2880733 -0.9508377 -0.1136727
vn -0.7041702 -0.6690354 -0.2377732
vn -0.9315841 -0.2079663 -0.298163
vn -0.7041702 -0.6690351 -0.2377736
vn -0.3000657 -0.02309791 0.9536389
vn -0.2880715 -0.9508383 -0.1136727
vn 0.2052094 -0.9778638 0.04088482
vn 0.6435115 -0.7428705 0.1844895
vn 0.9093812 -0.3088284 0.278659
vn 0.9315841 0.2079667 0.2981625
vn 0.7041703 0.669035 0.2377737
vn 0.2880716 0.9508383 0.1136727
vn -0.2052093 0.9778638 -0.04088479
vn -0.6435111 0.7428709 -0.1844893
vn -0.9093814 0.3088276 -0.2786591
vn -0.9315843 -0.207966 -0.2981625
vn 0.7093303 0.669338 0.2209918
vn 0.293297 0.951097 0.09691014
vn -0.1999099 0.9781184 -0.05762441
vn -0.6381429 0.7431619 -0.2012067
vn -0.9039719 0.3091862 -0.295362
vn -0.9261714 -0.2075289 -0.3148625
vn -0.6987922 -0.6685268 -0.2544827
vn -0.2827592 -0.9502856 -0.130401
vn 0.2104477 -0.9773072 0.02413359
vn 0.6486805 -0.7423511 0.1677157
vn 0.9145102 -0.3083742 0.2618711
vn 0.9367096 0.2083392 0.2813715
vn 0.300066 0.02309862 -0.9536388
vt 0.1372486 0.03949705
vt 0.1390854 0.04045265
vt 0.1363479 0.04571483
vt 0.134511 0.04475923
vt 0.09767205 0.01361052
vt 0.09955449 0.01447286
vt 0.09708411 0.01986563
vt 0.09520168 0.01900331
vt 0.02999144 -0.02114729
vt 0.0319888 -0.02060162
vt 0.03042556 -0.01487963
vt 0.02842821 -0.0154253
vt -0.05385323 -0.02912026
vt -0.05178292 -0.02908899
vt -0.0518725 -0.02315799
vt -0.05394282 -0.02318926
vt -0.1210173 0.0007413586
vt -0.1190072 0.0002447816
vt -0.1175846 0.006003346
vt -0.1195947 0.006499925
vt -0.1484167 0.03479014
vt -0.1465236 0.03395151
vt -0.1441211 0.03937488
vt -0.1460142 0.0402135
vt -0.1390854 0.04045265
vt -0.1372485 0.03949706
vt -0.1345109 0.04475923
vt -0.1363478 0.04571483
vt -0.09955472 0.01447313
vt -0.09767228 0.0136108
vt -0.0952019 0.01900358
vt -0.09708435 0.01986591
vt -0.03198881 -0.02060166
vt -0.02999146 -0.02114733
vt -0.02842822 -0.01542535
vt -0.03042557 -0.01487967
vt 0.05178292 -0.02908911
vt 0.05385324 -0.02912038
vt 0.05394282 -0.02318937
vt 0.0518725 -0.0231581
vt 0.1190073 0.0002449049
vt 0.1210174 0.000741485
vt 0.1195948 0.006500051
vt 0.1175847 0.006003468
vt 0.1465236 0.03395154
vt 0.1484167 0.03479016
vt 0.1460143 0.04021353
vt 0.1441211 0.03937491
vt 0.1210174 0.0007413971
vt 0.1190072 0.0002448176
vt 0.1242835 -0.02111311
vt 0.1262936 -0.02061654
vt 0.06115373 0.1382696
vt 0.06121381 0.1403392
vt 0.06023101 0.1421617
vt 0.05846866 0.1432486
vt 0.05639898 0.1433086
vt 0.05457653 0.1423258
vt 0.05348966 0.1405635
vt 0.05342957 0.1384938
vt 0.05441238 0.1366714
vt 0.05617473 0.1355845
vt 0.05824441 0.1355244
vt 0.06006685 0.1365072
vt 0.05385295 -0.02912042
vt 0.05178263 -0.02908915
vt 0.05145036 -0.05108664
vt 0.05352069 -0.05111791
vt -0.02999116 -0.0211475
vt -0.03198852 -0.02060183
vt -0.03778639 -0.0418241
vt -0.03578904 -0.04236977
vt -0.0976723 0.01361061
vt -0.09955473 0.01447295
vt -0.1087171 -0.005528317
vt -0.1068347 -0.006390648
vt -0.1372485 0.039497
vt -0.1390854 0.04045259
vt -0.1492388 0.02093572
vt -0.147402 0.01998012
vt -0.1465236 0.0339515
vt -0.1484167 0.03479013
vt -0.1573273 0.01467541
vt -0.1554342 0.01383678
vt -0.1190073 0.000244839
vt -0.1210174 0.000741417
vt -0.1262936 -0.02061651
vt -0.1242835 -0.02111309
vt -0.05178264 -0.02908914
vt -0.05385295 -0.02912042
vt -0.0535207 -0.0511179
vt -0.05145038 -0.05108663
vt 0.03198849 -0.02060184
vt 0.02999114 -0.02114751
vt 0.03578901 -0.04236978
vt 0.03778636 -0.04182411
vt 0.0995547 0.01447291
vt 0.09767225 0.01361058
vt 0.1068347 -0.006390682
vt 0.1087171 -0.005528356
vt 0.1390854 0.04045261
vt 0.1372486 0.03949701
vt 0.147402 0.01998014
vt 0.1492389 0.02093574
vt 0.1484167 0.03479016
vt 0.1465236 0.03395154
vt 0.1554342 0.01383682
vt 0.1573273 0.01467544
vt -0.1258708 -0.01927646
vt -0.1238598 -0.01976937
vt -0.1187223 0.001626085
vt -0.1205322 0.002069708
vt -0.05356389 -0.04869481
vt -0.05149357 -0.04866382
vt -0.05192644 -0.02666444
vt -0.05378973 -0.02669233
vt 0.03503981 -0.03997547
vt 0.03703821 -0.03943364
vt 0.03118037 -0.01822408
vt 0.02938181 -0.01871172
vt 0.1059994 -0.004750737
vt 0.1078832 -0.003891379
vt 0.09865677 0.01608443
vt 0.09696135 0.01531101
vt 0.1469946 0.02078163
vt 0.1488312 0.02173755
vt 0.1385811 0.04120788
vt 0.1369281 0.04034755
vt 0.1556071 0.01367675
vt 0.1574987 0.01451886
vt 0.1484551 0.03457813
vt 0.1467527 0.03382023
vt 0.1247437 -0.02255963
vt 0.1267528 -0.02205919
vt 0.1213342 -0.0007331772
vt 0.119526 -0.001183579
vt 0.05140468 -0.05362996
vt 0.05347499 -0.05366153
vt 0.0537069 -0.03165912
vt 0.05184362 -0.03163071
vt -0.0385809 -0.04432339
vt -0.03658466 -0.04487312
vt -0.03084258 -0.02363192
vt -0.0326392 -0.02313717
vt -0.1096075 -0.007257754
vt -0.1077265 -0.008123292
vt -0.09862264 0.01190865
vt -0.1003155 0.01268764
vt -0.149699 0.02004612
vt -0.1478622 0.01909061
vt -0.1377999 0.03865872
vt -0.1394531 0.03951869
vt -0.1572036 0.01474291
vt -0.1553091 0.01390753
vt -0.1465264 0.03408235
vt -0.1482314 0.03483419
vt -0.05979243 0.1367981
vt -0.05815223 0.1359136
vt -0.05628951 0.1359676
vt -0.0547034 0.1369458
vt -0.05381887 0.138586
vt -0.05387296 0.1404487
vt -0.05485115 0.1420349
vt -0.05649135 0.1429194
vt -0.05835406 0.1428653
vt -0.05994018 0.1418871
vt -0.0608247 0.1402469
vt -0.06077062 0.1383842
vt -0.1133858 0.1000274
vt -0.1150434 0.1012682
vt -0.1182616 0.09696903
vt -0.1166041 0.09572822
vt -0.09848869 -0.07810754
vt -0.0999793 -0.07954466
vt -0.09625191 -0.08341078
vt -0.0947613 -0.08197366
vt -0.03631741 -0.05609293
vt -0.03710858 -0.05800636
vt -0.03214578 -0.0600584
vt -0.0313546 -0.05814497
vt -0.008156234 0.01464521
vt -0.008769495 0.01266756
vt -0.003640139 0.01107696
vt -0.003026877 0.01305461
vt 0.01434004 0.0856948
vt 0.0137166 0.08372033
vt 0.0188377 0.08210334
vt 0.01946114 0.08407781
vt 0.04462204 0.1308568
vt 0.04378443 0.1289633
vt 0.04869572 0.1267908
vt 0.04953332 0.1286844
vt 0.1150433 0.1012683
vt 0.1133857 0.1000275
vt 0.116604 0.09572831
vt 0.1182616 0.09696914
vt 0.09997876 -0.07954508
vt 0.09848816 -0.07810797
vt 0.09476076 -0.08197407
vt 0.09625135 -0.08341119
vt 0.03710831 -0.05800648
vt 0.03631713 -0.05609306
vt 0.03135433 -0.05814508
vt 0.0321455 -0.06005852
vt 0.008769499 0.01266757
vt 0.008156237 0.01464522
vt 0.003026881 0.01305463
vt 0.003640141 0.01107698
vt -0.01371664 0.08372031
vt -0.01434008 0.08569477
vt -0.01946118 0.08407778
vt -0.01883773 0.08210331
vt -0.04378448 0.1289633
vt -0.04462209 0.1308569
vt -0.04953336 0.1286844
vt -0.04869576 0.1267909
vt -0.01434009 0.08569474
vt -0.01371666 0.08372027
vt 0.007262391 0.09034444
vt 0.006638951 0.09231891
vt -0.1435542 0.04810739
vt -0.1455711 0.04857558
vt -0.1475519 0.04797258
vt -0.1489658 0.04645997
vt -0.149434 0.04444305
vt -0.148831 0.04246224
vt -0.1473184 0.04104831
vt -0.1453015 0.04058012
vt -0.1433207 0.04118313
vt -0.1419068 0.04269574
vt -0.1414386 0.04471266
vt -0.1420416 0.04669347
vt 0.008156261 0.01464516
vt 0.008769523 0.01266751
vt 0.02978241 0.01918355
vt 0.02916915 0.0211612
vt 0.03631726 -0.05609277
vt 0.03710843 -0.0580062
vt 0.05743903 -0.04959983
vt 0.05664786 -0.04768641
vt 0.09848884 -0.07810749
vt 0.09997945 -0.0795446
vt 0.115249 -0.06370662
vt 0.1137584 -0.06226952
vt 0.1133859 0.1000273
vt 0.1150435 0.1012681
vt 0.1018596 0.1188801
vt 0.100202 0.1176393
vt 0.04378454 0.1289632
vt 0.04462215 0.1308568
vt 0.02450264 0.1397565
vt 0.02366504 0.137863
vt 0.01371667 0.08372029
vt 0.01434011 0.08569477
vt -0.006638931 0.09231894
vt -0.007262376 0.09034447
vt -0.008769519 0.01266753
vt -0.008156257 0.01464517
vt -0.02916914 0.02116121
vt -0.0297824 0.01918356
vt -0.03710842 -0.05800618
vt -0.03631725 -0.05609275
vt -0.05664784 -0.04768638
vt -0.05743902 -0.04959982
vt -0.09997934 -0.07954466
vt -0.09848873 -0.07810755
vt -0.1137583 -0.06226959
vt -0.1152489 -0.0637067
vt -0.1150433 0.1012683
vt -0.1133857 0.1000275
vt -0.1002018 0.1176395
vt -0.1018594 0.1188803
vt -0.04462221 0.1308568
vt -0.0437846 0.1289633
vt -0.02366509 0.137863
vt -0.02450269 0.1397566
vt -0.004145448 0.09169172
vt -0.004778375 0.08972028
vt 0.01620344 0.08309283
vt 0.01677308 0.08486713
vt -0.02676043 0.02029002
vt -0.02736624 0.01831007
vt -0.006295428 0.01197124
vt -0.005750198 0.01375319
vt -0.05379473 -0.04934604
vt -0.05455874 -0.05127047
vt -0.03406986 -0.05929329
vt -0.03338225 -0.0575613
vt -0.1109038 -0.06650741
vt -0.1123526 -0.06798668
vt -0.09656018 -0.08330856
vt -0.09525628 -0.08197721
vt -0.09691381 0.120328
vt -0.09853566 0.1216151
vt -0.112133 0.1043157
vt -0.1106733 0.1031572
vt -0.02033623 0.1387028
vt -0.02114367 0.1406094
vt -0.0413647 0.1319336
vt -0.040638 0.1302176
vt 0.009881573 0.09098276
vt 0.009267836 0.09296028
vt -0.01171605 0.08633937
vt -0.01116369 0.08455961
vt 0.03231362 0.02011025
vt 0.03169311 0.02208563
vt 0.01073207 0.01539273
vt 0.01129054 0.01361489
vt 0.06038464 -0.04782531
vt 0.05956698 -0.04592305
vt 0.03939281 -0.05470727
vt 0.0401287 -0.05641931
vt 0.1179712 -0.05943229
vt 0.1164425 -0.05803583
vt 0.101679 -0.0743515
vt 0.1030549 -0.07560831
vt 0.1047884 0.1163796
vt 0.103099 0.1151825
vt 0.1159046 0.09728901
vt 0.1174251 0.09836637
vt 0.02767966 0.1388943
vt 0.02681272 0.137014
vt 0.04683788 0.1278952
vt 0.04761813 0.1295875
vt 0.142381 0.04648189
vt 0.1418383 0.04469916
vt 0.1422597 0.04288393
vt 0.1435322 0.04152257
vt 0.145315 0.04097988
vt 0.1471302 0.04140125
vt 0.1484915 0.04267379
vt 0.1490342 0.04445651
vt 0.1486129 0.04627174
vt 0.1473403 0.04763309
vt 0.1455576 0.04817579
vt 0.1437424 0.04775441
vt -0.1053106 0.09318632
vt -0.1066976 0.09472366
vt -0.1104715 0.09131887
vt -0.1090845 0.08978152
vt -0.06602289 0.06861586
vt -0.06719165 0.07032502
vt -0.07138725 0.06745599
vt -0.07021851 0.06574684
vt -0.02591414 0.009471077
vt -0.02710377 0.01116575
vt -0.03126385 0.008245443
vt -0.03007421 0.00655076
vt 0.02759431 -0.05008724
vt 0.02613385 -0.04861951
vt 0.02253088 -0.05220463
vt 0.02399134 -0.05367236
vt 0.10788 -0.05064251
vt 0.1059058 -0.05001838
vt 0.1043737 -0.05486473
vt 0.1063479 -0.05548887
vt 0.1428857 0.04801754
vt 0.1410028 0.04715627
vt 0.143117 0.04253409
vt 0.145 0.04339536
vt 0.1066976 0.09472362
vt 0.1053106 0.09318627
vt 0.1090845 0.08978149
vt 0.1104715 0.09131883
vt 0.06719173 0.07032499
vt 0.06602298 0.06861584
vt 0.07021861 0.06574681
vt 0.07138735 0.06745597
vt 0.0271039 0.01116571
vt 0.02591426 0.009471028
vt 0.03007434 0.006550713
vt 0.03126398 0.008245395
vt -0.02613418 -0.04861977
vt -0.02759465 -0.0500875
vt -0.02399168 -0.05367263
vt -0.02253121 -0.0522049
vt -0.1059057 -0.05001849
vt -0.1078799 -0.05064263
vt -0.1063478 -0.05548899
vt -0.1043736 -0.05486485
vt -0.1410028 0.04715633
vt -0.1428857 0.04801759
vt -0.1449999 0.04339541
vt -0.143117 0.04253415
vt -0.10788 -0.05064253
vt -0.1059057 -0.05001839
vt -0.1125373 -0.02904168
vt -0.1145115 -0.02966581
vt 0.1366765 0.06469493
vt 0.1380673 0.06622884
vt 0.1385048 0.06825264
vt 0.1378718 0.07022406
vt 0.1363379 0.07161485
vt 0.1343141 0.07205236
vt 0.1323427 0.07141934
vt 0.1309519 0.06988544
vt 0.1305144 0.06786163
vt 0.1311474 0.06589022
vt 0.1326813 0.06449943
vt 0.1347052 0.06406192
vt -0.02759448 -0.0500873
vt -0.02613401 -0.04861956
vt -0.04172897 -0.03310191
vt -0.04318943 -0.03456965
vt 0.02591409 0.009470947
vt 0.02710373 0.01116563
vt 0.009097423 0.02380577
vt 0.007907785 0.02211109
vt 0.06602297 0.06861598
vt 0.06719171 0.07032514
vt 0.04903159 0.08274327
vt 0.04786284 0.08103411
vt 0.1053105 0.09318636
vt 0.1066975 0.09472369
vt 0.09036296 0.1094608
vt 0.08897597 0.1079235
vt 0.1410028 0.04715628
vt 0.1428857 0.04801755
vt 0.1337346 0.06802398
vt 0.1318517 0.06716271
vt 0.1059058 -0.05001838
vt 0.10788 -0.05064252
vt 0.1145116 -0.0296658
vt 0.1125373 -0.02904167
vt 0.02613402 -0.04861958
vt 0.02759448 -0.05008731
vt 0.04318943 -0.03456965
vt 0.04172897 -0.03310192
vt -0.02710371 0.0111656
vt -0.02591407 0.009470924
vt -0.007907769 0.02211106
vt -0.009097407 0.02380574
vt -0.06719168 0.07032509
vt -0.06602292 0.06861593
vt -0.0478628 0.08103406
vt -0.04903155 0.08274322
vt -0.1066976 0.09472369
vt -0.1053106 0.09318635
vt -0.08897601 0.1079235
vt -0.09036301 0.1094608
vt -0.1428857 0.04801767
vt -0.1410027 0.0471564
vt -0.1318516 0.06716283
vt -0.1337346 0.0680241
vt 0.1137886 -0.03205774
vt 0.1118192 -0.03141861
vt 0.1051258 -0.05237948
vt 0.1068983 -0.05295469
vt 0.04112357 -0.03667514
vt 0.03967771 -0.03519302
vt 0.02399971 -0.05063193
vt 0.02530098 -0.05196585
vt -0.009913011 0.02068609
vt -0.0110961 0.02238535
vt -0.02909468 0.009727901
vt -0.0280299 0.00819857
vt -0.0497053 0.07978669
vt -0.05087835 0.08149292
vt -0.06895137 0.06894199
vt -0.06789564 0.06740639
vt -0.09055272 0.1065561
vt -0.09195293 0.1080814
vt -0.1080921 0.09312531
vt -0.1068319 0.09175254
vt -0.1322682 0.06638572
vt -0.134159 0.06722959
vt -0.1430322 0.0470944
vt -0.1413305 0.04633491
vt -0.1132534 -0.02657704
vt -0.1152321 -0.027187
vt -0.1086511 -0.04818347
vt -0.1068703 -0.0476345
vt -0.04382613 -0.03089367
vt -0.04530055 -0.03234737
vt -0.02977862 -0.04794318
vt -0.02845163 -0.04663485
vt 0.006996762 0.02532062
vt 0.005800871 0.02363034
vt 0.0238229 0.01100631
vt 0.02489921 0.01252756
vt 0.04705541 0.0840671
vt 0.04589122 0.08235484
vt 0.06414536 0.07006881
vt 0.06519313 0.07160985
vt 0.08862374 0.1109353
vt 0.08725051 0.1093857
vt 0.1037871 0.09487014
vt 0.105023 0.09626482
vt 0.1332151 0.0690053
vt 0.1313406 0.06812577
vt 0.140781 0.04825016
vt 0.142468 0.04904175
vt -0.1346856 0.0644614
vt -0.1328642 0.06485516
vt -0.1314837 0.06610687
vt -0.1309139 0.06788114
vt -0.1313077 0.06970257
vt -0.1325594 0.07108308
vt -0.1343337 0.07165279
vt -0.1361551 0.07125904
vt -0.1375356 0.07000733
vt -0.1381053 0.06823305
vt -0.1377116 0.06641163
vt -0.1364599 0.06503111
o group948654170
g mesh948654170
usemtl mat5
f 4/4/1 3/3/1 2/2/1 1/1/1
f 3/8/2 6/7/2 5/6/2 2/5/2
f 6/12/3 8/11/3 7/10/3 5/9/3
f 8/16/4 10/15/4 9/14/4 7/13/4
f 10/20/5 12/19/5 11/18/5 9/17/5
f 12/24/6 14/23/6 13/22/6 11/21/6
f 14/28/7 16/27/7 15/26/7 13/25/7
f 16/32/8 18/31/8 17/30/8 15/29/8
f 18/36/9 20/35/9 19/34/9 17/33/9
f 20/40/10 22/39/10 21/38/10 19/37/10
f 22/44/11 24/43/11 23/42/11 21/41/11
f 24/48/12 4/47/12 1/46/12 23/45/12
f 24/64/14 22/63/14 20/62/14 18/61/14 16/60/14 14/59/14 12/58/14 10/57/14 8/56/14 6/55/14 3/54/14 4/53/14
usemtl mat12
f 26/52/13 25/51/13 21/50/13 23/49/13
f 25/68/15 27/67/15 19/66/15 21/65/15
f 27/72/16 28/71/16 17/70/16 19/69/16
f 28/76/17 29/75/17 15/74/17 17/73/17
f 29/80/18 30/79/18 13/78/18 15/77/18
f 30/84/19 31/83/19 11/82/19 13/81/19
f 31/88/20 32/87/20 9/86/20 11/85/20
f 32/92/21 33/91/21 7/90/21 9/89/21
f 33/96/22 34/95/22 5/94/22 7/93/22
f 34/100/23 35/99/23 2/98/23 5/97/23
f 35/104/24 36/103/24 1/102/24 2/101/24
f 36/108/25 26/107/25 23/106/25 1/105/25
f 38/112/26 37/111/26 25/110/26 26/109/26
f 37/116/27 39/115/27 27/114/27 25/113/27
f 39/120/28 40/119/28 28/118/28 27/117/28
f 40/124/29 41/123/29 29/122/29 28/121/29
f 41/128/30 42/127/30 30/126/30 29/125/30
f 42/132/31 43/131/31 31/130/31 30/129/31
f 43/136/32 44/135/32 32/134/32 31/133/32
f 44/140/33 45/139/33 33/138/33 32/137/33
f 45/144/34 46/143/34 34/142/34 33/141/34
f 46/148/35 47/147/35 35/146/35 34/145/35
f 47/152/36 48/151/36 36/150/36 35/149/36
f 48/156/37 38/155/37 26/154/37 36/153/37
f 48/168/38 47/167/38 46/166/38 45/165/38 44/164/38 43/163/38 42/162/38 41/161/38 40/160/38 39/159/38 37/158/38 38/157/38
o group249784605
g mesh249784605
usemtl mat5
f 52/172/39 51/171/39 50/170/39 49/169/39
f 51/176/40 54/175/40 53/174/40 50/173/40
f 54/180/41 56/179/41 55/178/41 53/177/41
f 56/184/42 58/183/42 57/182/42 55/181/42
f 58/188/43 60/187/43 59/186/43 57/185/43
f 60/192/44 62/191/44 61/190/44 59/189/44
f 62/196/45 64/195/45 63/194/45 61/193/45
f 64/200/46 66/199/46 65/198/46 63/197/46
f 66/204/47 68/203/47 67/202/47 65/201/47
f 68/208/48 70/207/48 69/206/48 67/205/48
f 70/212/49 72/211/49 71/210/49 69/209/49
f 72/216/50 52/215/50 49/214/50 71/213/50
f 72/232/52 70/231/52 68/230/52 66/229/52 64/228/52 62/227/52 60/226/52 58/225/52 56/224/52 54/223/52 51/222/52 52/221/52
usemtl mat8
f 74/220/51 73/219/51 69/218/51 71/217/51
f 73/236/53 75/235/53 67/234/53 69/233/53
f 75/240/54 76/239/54 65/238/54 67/237/54
f 76/244/55 77/243/55 63/242/55 65/241/55
f 77/248/56 78/247/56 61/246/56 63/245/56
f 78/252/57 79/251/57 59/250/57 61/249/57
f 79/256/58 80/255/58 57/254/58 59/253/58
f 80/260/59 81/259/59 55/258/59 57/257/59
f 81/264/60 82/263/60 53/262/60 55/261/60
f 82/268/61 83/267/61 50/266/61 53/265/61
f 83/272/62 84/271/62 49/270/62 50/269/62
f 84/276/63 74/275/63 71/274/63 49/273/63
f 86/280/64 85/279/64 73/278/64 74/277/64
f 85/284/65 87/283/65 75/282/65 73/281/65
f 87/288/66 88/287/66 76/286/66 75/285/66
f 88/292/67 89/291/67 77/290/67 76/289/67
f 89/296/68 90/295/68 78/294/68 77/293/68
f 90/300/69 91/299/69 79/298/69 78/297/69
f 91/304/70 92/303/70 80/302/70 79/301/70
f 92/308/71 93/307/71 81/306/71 80/305/71
f 93/312/72 94/311/72 82/310/72 81/309/72
f 94/316/73 95/315/73 83/314/73 82/313/73
f 95/320/74 96/319/74 84/318/74 83/317/74
f 96/324/75 86/323/75 74/322/75 84/321/75
f 96/336/76 95/335/76 94/334/76 93/333/76 92/332/76 91/331/76 90/330/76 89/329/76 88/328/76 87/327/76 85/326/76 86/325/76
o group287608438
g mesh287608438
usemtl mat5
f 100/340/77 99/339/77 98/338/77 97/337/77
f 99/344/78 102/343/78 101/342/78 98/341/78
f 102/348/79 104/347/79 103/346/79 101/345/79
f 104/352/80 106/351/80 105/350/80 103/349/80
f 106/356/81 108/355/81 107/354/81 105/353/81
f 108/360/82 110/359/82 109/358/82 107/357/82
f 110/364/83 112/363/83 111/362/83 109/361/83
f 112/368/84 114/367/84 113/366/84 111/365/84
f 114/372/85 116/371/85 115/370/85 113/369/85
f 116/376/86 118/375/86 117/374/86 115/373/86
f 118/380/87 120/379/87 119/378/87 117/377/87
f 120/384/88 100/383/88 97/382/88 119/381/88
f 120/400/90 118/399/90 116/398/90 114/397/90 112/396/90 110/395/90 108/394/90 106/393/90 104/392/90 102/391/90 99/390/90 100/389/90
usemtl mat10
f 122/388/89 121/387/89 117/386/89 119/385/89
f 121/404/91 123/403/91 115/402/91 117/401/91
f 123/408/92 124/407/92 113/406/92 115/405/92
f 124/412/93 125/411/93 111/410/93 113/409/93
f 125/416/94 126/415/94 109/414/94 111/413/94
f 126/420/95 127/419/95 107/418/95 109/417/95
f 127/424/96 128/423/96 105/422/96 107/421/96
f 128/428/97 129/427/97 103/426/97 105/425/97
f 129/432/98 130/431/98 101/430/98 103/429/98
f 130/436/99 131/435/99 98/434/99 101/433/99
f 131/440/100 132/439/100 97/438/100 98/437/100
f 132/444/101 122/443/101 119/442/101 97/441/101
f 134/448/102 133/447/102 121/446/102 122/445/102
f 133/452/103 135/451/103 123/450/103 121/449/103
f 135/456/104 136/455/104 124/454/104 123/453/104
f 136/460/105 137/459/105 125/458/105 124/457/105
f 137/464/106 138/463/106 126/462/106 125/461/106
f 138/468/107 139/467/107 127/466/107 126/465/107
f 139/472/108 140/471/108 128/470/108 127/469/108
f 140/476/109 141/475/109 129/474/109 128/473/109
f 141/480/110 142/479/110 130/478/110 129/477/110
f 142/484/111 143/483/111 131/482/111 130/481/111
f 143/488/112 144/487/112 132/486/112 131/485/112
f 144/492/113 134/491/113 122/490/113 132/489/113
f 144/504/114 143/503/114 142/502/114 141/501/114 140/500/114 139/499/114 138/498/114 137/497/114 136/496/114 135/495/114 133/494/114 134/493/114
